<?xml version="1.0" encoding="iso-8859-1"?>
<!-- Uploaded to: SVG Repo, www.svgrepo.com, Generator: SVG Repo Mixer Tools -->
<svg version="1.1" id="Layer_1" xmlns="http://www.w3.org/2000/svg" xmlns:xlink="http://www.w3.org/1999/xlink" 
	 viewBox="0 0 512 512" xml:space="preserve">
<polyline style="fill:#EDAB06;" points="83.618,51.457 392.359,0 392.359,149.531 "/>
<rect x="83.618" y="51.457" style="fill:#FDBB00;" width="344.764" height="460.543"/>
<g>
	<path style="fill:#A67C52;" d="M144.08,512H83.618v-60.462C117.014,451.538,144.08,478.604,144.08,512z"/>
	<path style="fill:#A67C52;" d="M428.382,451.538V512H367.92C367.92,478.604,394.986,451.538,428.382,451.538z"/>
	<path style="fill:#A67C52;" d="M428.382,51.457v60.462c-33.396,0-60.462-27.067-60.462-60.462H428.382z"/>
	<path style="fill:#A67C52;" d="M83.618,51.457h60.462c0,33.396-27.067,60.462-60.462,60.462V51.457z"/>
</g>
<g>
	<rect x="173.668" y="137.648" style="fill:#936841;" width="164.65" height="14.151"/>
	<rect x="173.668" y="411.658" style="fill:#936841;" width="164.65" height="14.151"/>
</g>
<path style="fill:#7EAF31;" d="M326.985,305.708c-7.41-7.375-25.357-18.39-41.776-24.049c16.39-5.735,34.287-16.834,41.661-24.244
	c12.889-12.949,12.839-33.895-0.109-46.782c-12.949-12.889-33.895-12.84-46.782,0.109c-7.375,7.41-18.39,25.357-24.049,41.776
	c-5.735-16.39-16.834-34.287-24.244-41.661c-12.949-12.889-33.895-12.84-46.782,0.109c-12.889,12.949-12.839,33.895,0.109,46.782
	c7.41,7.375,25.357,18.39,41.776,24.049c-16.39,5.735-34.287,16.834-41.661,24.244c-12.889,12.949-12.839,33.895,0.109,46.782
	c12.949,12.889,33.895,12.839,46.782-0.109c7.375-7.41,18.39-25.357,24.049-41.776c5.735,16.39,16.834,34.287,24.244,41.661
	c12.949,12.889,33.895,12.839,46.782-0.109C339.983,339.542,339.935,318.596,326.985,305.708z"/>
</svg>