<?xml version="1.0" encoding="UTF-8"?>
<svg version="1.1" xmlns="http://www.w3.org/2000/svg" width="512" height="512">
<path d="M0 0 C1.02609375 -0.03738281 2.0521875 -0.07476563 3.109375 -0.11328125 C9.51733805 0.75546001 13.87361197 5.57616569 18.25 10 C18.77110352 10.52456787 19.29220703 11.04913574 19.82910156 11.58959961 C30.25 22.30539839 30.25 22.30539839 30.25 28.3125 C31.23226562 28.26029297 31.23226562 28.26029297 32.234375 28.20703125 C46.56489181 27.78197355 59.72200313 32.175415 70.5625 41.6875 C72.1421271 43.21161305 73.70597252 44.75233286 75.25 46.3125 C75.88679688 46.91578125 76.52359375 47.5190625 77.1796875 48.140625 C87.34448949 58.53131148 91.57830748 75.03281926 96.18676758 88.47387695 C97.18984064 91.3817855 98.22433405 94.27730916 99.25976562 97.17382812 C103.42866794 109.10829033 107.17581707 119.99795733 102.25 132.3125 C105.88 132.3125 109.51 132.3125 113.25 132.3125 C113.58 130.9925 113.91 129.6725 114.25 128.3125 C115.57086182 126.58874512 115.57086182 126.58874512 117.25 125.3125 C120.23179395 124.98863756 122.99956723 124.8444706 125.984375 124.84375 C127.28970184 124.83232971 127.28970184 124.83232971 128.62139893 124.82067871 C130.4707147 124.80986231 132.32009164 124.80703085 134.16943359 124.81152344 C136.94869062 124.8124823 139.72505787 124.77116681 142.50390625 124.7265625 C158.20469374 124.62018991 170.72865377 127.1772971 183.25 137.3125 C184.8278125 138.4571875 184.8278125 138.4571875 186.4375 139.625 C196.3175569 149.06594326 201.4054228 161.32425401 203.59448242 174.60083008 C203.89356019 176.30944198 203.89356019 176.30944198 204.19867992 178.0525713 C204.90370286 182.13591871 205.57961448 186.22336032 206.25 190.3125 C206.51914184 191.9431739 206.78834091 193.57383836 207.05759048 195.20449448 C209.15510211 207.94132495 211.19065256 220.6879114 213.21870065 233.43595481 C214.09976717 238.96955747 214.98469967 244.50254194 215.8691864 250.03559875 C217.53624505 260.4678179 219.19992904 270.90057216 220.86233824 281.33353311 C222.75817755 293.23036892 224.65787413 305.12658783 226.55786192 317.0227617 C230.45947116 341.45200035 234.35634316 365.88199269 238.25 390.3125 C239.62551025 390.32651855 239.62551025 390.32651855 241.02880859 390.34082031 C244.47729425 390.38520461 247.92460513 390.44697924 251.37255859 390.52001953 C252.85616958 390.54800006 254.3399233 390.56932694 255.82373047 390.58349609 C265.53890569 390.68176152 274.78183175 390.90466566 282.6875 397.27734375 C283.203125 397.92832031 283.71875 398.57929688 284.25 399.25 C284.78625 399.89839844 285.3225 400.54679687 285.875 401.21484375 C289.85640428 407.28874744 290.00778518 413.24859684 289.25 420.3125 C288.09359713 424.67020581 286.45727218 428.73357944 284.6875 432.875 C284.26919922 433.92107422 283.85089844 434.96714844 283.41992188 436.04492188 C276.84433598 451.97464952 267.67909425 464.62454031 251.44116211 471.50219727 C242.12053695 474.63914461 233.63344269 474.78727199 223.9375 474.5625 C222.40692478 474.5423758 220.8763236 474.52413564 219.34570312 474.5078125 C215.64658314 474.46435089 211.94846606 474.39566191 208.25 474.3125 C208.26571045 474.93705078 208.2814209 475.56160156 208.29760742 476.20507812 C208.36052044 479.07412417 208.39916731 481.94302442 208.4375 484.8125 C208.46263672 485.79476563 208.48777344 486.77703125 208.51367188 487.7890625 C208.58527478 494.94935298 208.14413622 500.91072295 203.3125 506.58984375 C202.631875 507.13769531 201.95125 507.68554688 201.25 508.25 C200.569375 508.81589844 199.88875 509.38179688 199.1875 509.96484375 C195.84588339 512.28915369 193.03719234 512.43864091 189.08746624 512.44392776 C188.01230745 512.44776891 186.93714866 512.45161005 185.8294093 512.4555676 C184.05103805 512.45426787 184.05103805 512.45426787 182.23674011 512.45294189 C180.98067611 512.45591302 179.7246121 512.45888414 178.43048555 512.4619453 C174.93715846 512.47002305 171.44385191 512.4718053 167.95051658 512.47254276 C164.18558759 512.47439196 160.42066928 512.48193861 156.65574646 512.48867798 C148.42024817 512.50226717 140.18475475 512.50828688 131.94924712 512.51268864 C126.80847746 512.51544998 121.66770969 512.51968712 116.5269413 512.52419281 C102.29790839 512.53638607 88.068877 512.54668538 73.83983898 512.5500679 C72.92892945 512.55028747 72.01801992 512.55050703 71.07950707 512.55073325 C69.70984668 512.55106067 69.70984668 512.55106067 68.31251639 512.5513947 C66.46216913 512.55183817 64.61182187 512.55228473 62.76147461 512.55273438 C61.84363563 512.5529558 60.92579664 512.55317723 59.98014436 512.55340537 C45.10488847 512.55735414 30.22968155 512.5748103 15.35444459 512.5980939 C0.08785115 512.6217975 -15.1787177 512.63426929 -30.44532984 512.63543582 C-39.01923742 512.63635312 -47.59308119 512.64211929 -56.16697121 512.66025543 C-63.46727994 512.67564303 -70.76750516 512.68078482 -78.06782702 512.67251733 C-81.79311931 512.66860609 -85.51824335 512.66956336 -89.24351501 512.68357468 C-93.28106177 512.69862176 -97.31822809 512.69046121 -101.35578918 512.67999268 C-102.53467785 512.68804908 -103.71356652 512.69610548 -104.92817909 512.70440602 C-111.57780827 512.66394365 -116.39383477 512.2742441 -121.578125 507.69921875 C-122.04734375 507.13847656 -122.5165625 506.57773437 -123 506 C-123.47953125 505.44699219 -123.9590625 504.89398438 -124.453125 504.32421875 C-128.3933942 498.21205418 -127.99252699 491.94391666 -127.875 484.9375 C-127.86597656 483.91527344 -127.85695313 482.89304687 -127.84765625 481.83984375 C-127.8242043 479.33048478 -127.79138355 476.82161664 -127.75 474.3125 C-128.68158936 474.33344727 -129.61317871 474.35439453 -130.57299805 474.37597656 C-134.09377312 474.44493862 -137.61381085 474.49467512 -141.13500977 474.53222656 C-142.64684512 474.55210437 -144.1586061 474.57921673 -145.67016602 474.61425781 C-162.17877419 474.98683842 -176.01935146 471.62790098 -188.5 460.0625 C-195.71479977 452.17416488 -200.2541662 442.7113648 -204.1875 432.875 C-204.63287109 431.83279297 -205.07824219 430.79058594 -205.53710938 429.71679688 C-208.92321592 421.3269507 -210.83196301 412.58435704 -207.1875 403.9375 C-203.70861159 398.06611289 -198.87817989 394.33258527 -192.49005127 391.97834778 C-186.24786394 390.46146136 -179.64594187 390.72256759 -173.25 390.625 C-171.74476282 390.59177717 -170.23955313 390.55728303 -168.734375 390.52148438 C-165.07311808 390.43714864 -161.41178694 390.37007327 -157.75 390.3125 C-157.65576626 389.70896855 -157.56153252 389.10543711 -157.46444321 388.48361683 C-155.16934637 373.79145831 -152.85696384 359.10209907 -150.52537155 344.41569233 C-149.39824008 337.31334616 -148.27695431 330.21016923 -147.16943359 323.10473633 C-146.20398515 316.91088285 -145.2275623 310.71887647 -144.23798013 304.52883118 C-143.71448797 301.25182538 -143.19814013 297.97395125 -142.69164276 294.69426918 C-142.1249658 291.03109906 -141.53894385 287.37151974 -140.94824219 283.7121582 C-140.70331779 282.08404205 -140.70331779 282.08404205 -140.45344543 280.42303467 C-138.89360649 270.99289845 -138.89360649 270.99289845 -134.75 267.3125 C-132 267 -132 267 -129.75 267.3125 C-129.61722656 266.10851562 -129.48445313 264.90453125 -129.34765625 263.6640625 C-129.1694698 262.08851915 -128.9910735 260.51299953 -128.8125 258.9375 C-128.72548828 258.1434375 -128.63847656 257.349375 -128.54882812 256.53125 C-127.86328125 250.5390625 -127.86328125 250.5390625 -126.75 248.3125 C-127.9565625 247.879375 -127.9565625 247.879375 -129.1875 247.4375 C-131.75 246.3125 -131.75 246.3125 -132.75 244.3125 C-133.56436224 235.83016738 -131.86558857 227.4029094 -130.484375 219.06640625 C-130.24695085 217.60495633 -130.00991814 216.14344276 -129.77325439 214.68186951 C-129.27751853 211.63263159 -128.7758177 208.58444957 -128.27001953 205.53686523 C-127.62752489 201.66158132 -127.0019818 197.78378129 -126.38119125 193.90496922 C-125.8962991 190.8896902 -125.40131069 187.87613131 -124.90351105 184.86295891 C-124.6690265 183.4351853 -124.43778544 182.00687454 -124.21007538 180.57800484 C-122.1870998 167.93747306 -118.99656374 156.9713697 -111.75 146.3125 C-111.33363281 145.69761719 -110.91726562 145.08273438 -110.48828125 144.44921875 C-102.64470034 134.20309955 -90.22814145 127.79503763 -77.75 125.3125 C-71.624303 124.58683544 -65.48139107 124.58907022 -59.32104492 124.66064453 C-56.5271513 124.68784413 -53.7371437 124.66055697 -50.94335938 124.62890625 C-49.15624118 124.63220424 -47.3691254 124.63859776 -45.58203125 124.6484375 C-44.33834526 124.63325577 -44.33834526 124.63325577 -43.0695343 124.61776733 C-38.88759995 124.70312907 -37.34023529 124.75360314 -34.19799805 127.72900391 C-32.75 130.3125 -32.75 130.3125 -32.75 132.3125 C-28.13 131.9825 -23.51 131.6525 -18.75 131.3125 C-20.25208862 129.10943669 -21.75479659 126.90679118 -23.26171875 124.70703125 C-24.75 122.3125 -24.75 122.3125 -25.875 118.875 C-27.45345411 116.14182428 -27.45345411 116.14182428 -29.89453125 115.78515625 C-31.88889554 115.53690671 -33.88374534 115.29254493 -35.87890625 115.05078125 C-40.86708224 114.09945404 -45.40114277 112.46078732 -50.125 110.625 C-50.98085693 110.30998535 -51.83671387 109.9949707 -52.71850586 109.67041016 C-58.4903612 107.36709557 -62.36522671 104.59475098 -65.75 99.3125 C-67.49535752 94.07642745 -67.6199592 88.60423472 -65.5 83.4375 C-62.64200409 78.27232194 -57.92586377 74.55737494 -53.52734375 70.73046875 C-50.85695503 68.47951613 -50.85695503 68.47951613 -49.00390625 66.48828125 C-47.75 65.3125 -47.75 65.3125 -45.75 65.3125 C-46.09933594 64.61125 -46.44867188 63.91 -46.80859375 63.1875 C-53.16211839 49.94049112 -53.16211839 49.94049112 -50.625 42.125 C-48.75672565 37.78275505 -46.01271626 34.89037478 -42.13671875 32.1875 C-38.46278728 30.84059223 -34.87689444 31.10391853 -31 31.1875 C-29.81083984 31.20103516 -29.81083984 31.20103516 -28.59765625 31.21484375 C-26.64830719 31.23832988 -24.69911425 31.27419863 -22.75 31.3125 C-22.64945313 30.33410156 -22.54890625 29.35570313 -22.4453125 28.34765625 C-21.80156908 23.889677 -20.32623982 19.90398704 -18.625 15.75 C-18.31731689 14.99783203 -18.00963379 14.24566406 -17.69262695 13.47070312 C-14.11376334 5.19599995 -9.37794275 0.22161805 0 0 Z " fill="#FE405A" transform="translate(215.75,-0.3125)"/>
<path d="M0 0 C0.9075 -0.02900391 1.815 -0.05800781 2.75 -0.08789062 C7.09686727 -0.12919857 9.55549483 -0.11495559 13.328125 2.20703125 C16.57005882 5.758662 16.37806672 8.00553512 16.3918457 12.74658203 C16.39532013 13.40702011 16.39879456 14.06745819 16.40237427 14.74790955 C16.40973318 16.18458334 16.41507784 17.62126853 16.41866493 19.0579567 C16.42583419 21.33714224 16.44150653 23.61611296 16.46000671 25.89523315 C16.51243659 32.37641347 16.56039454 38.85747964 16.57592773 45.33886719 C16.58605125 49.30309435 16.61549086 53.26678581 16.65724754 57.23080063 C16.66950655 58.73691618 16.67468817 60.24310761 16.67244911 61.74927139 C16.66223405 70.86850333 16.76769505 78.11824057 22.99609375 85.3359375 C23.55425781 85.78195312 24.11242187 86.22796875 24.6875 86.6875 C25.24308594 87.14898437 25.79867187 87.61046875 26.37109375 88.0859375 C32.0420265 91.78796013 37.65778293 92.15969256 44.25 91.3125 C50.2668057 89.40618532 54.78317102 86.61960502 58.3125 81.3515625 C61.05002493 75.39744578 61.50510532 70.04386532 61.41796875 63.59765625 C61.42364487 61.92512451 61.43085341 60.25259739 61.43945312 58.58007812 C61.44362505 55.97507763 61.43745776 53.37165762 61.40454102 50.7668457 C61.22938762 34.35357774 61.22938762 34.35357774 65.67578125 29.18359375 C69.4311963 25.79370251 72.01218686 25.01378566 77.15625 25.09765625 C81.74136259 25.56814355 84.53927034 27.5249347 87.5625 30.875 C90.94684335 35.76349595 90.5205277 40.54054194 90.59179688 46.30859375 C90.87568342 54.2706209 93.73198753 60.50676993 99.25 66.3125 C106.4547054 71.24766967 113.54875671 73.81359168 122.25 72.3125 C130.00091397 70.12009862 136.39266646 66.69512892 140.5234375 59.52734375 C145.06828182 49.95351143 143.99058987 39.24357202 143.875 28.875 C143.8509056 25.72562087 143.83577089 22.57718546 143.84457397 19.42771912 C143.84913209 17.47996019 143.8345916 15.53203515 143.79824829 13.58460999 C143.79996348 9.29348644 143.8479071 6.96234868 146.14990234 3.24194336 C149.48957029 0.1736574 151.45161646 0.18043072 155.90551758 0.15136719 C157.09047318 0.14175964 158.27542877 0.1321521 159.49629211 0.12225342 C160.78271103 0.11800354 162.06912994 0.11375366 163.39453125 0.109375 C164.71160568 0.10367493 166.02868011 0.09797485 167.38566589 0.09210205 C170.1774433 0.08159175 172.96919192 0.07574962 175.76098633 0.07226562 C179.33211892 0.06678765 182.90286893 0.04277523 186.47388172 0.01429367 C189.8849242 -0.00885532 193.29591428 -0.01078419 196.70703125 -0.015625 C197.98737747 -0.0279718 199.26772369 -0.0403186 200.58686829 -0.05303955 C201.78128036 -0.05003845 202.97569244 -0.04703735 204.20629883 -0.04394531 C205.25505692 -0.04759094 206.303815 -0.05123657 207.38435364 -0.05499268 C210.72003681 0.37277788 212.56056274 1.31963168 215.25 3.3125 C217.70760985 6.99891477 217.53588291 9.78958842 217.52124023 14.0534668 C217.52908035 15.23453758 217.52908035 15.23453758 217.53707886 16.43946838 C217.54732209 18.15003655 217.55309983 19.86063592 217.55496025 21.57123375 C217.55862278 24.28321738 217.57534842 26.99483492 217.59571838 29.70674133 C217.65112652 37.41762463 217.68174602 45.12856297 217.70629883 52.83959961 C217.7222249 57.55698771 217.75250243 62.27411863 217.79106331 66.99137306 C217.80267505 68.78498402 217.80864332 70.57864111 217.80874443 72.37228966 C217.80893772 74.889984 217.82729583 77.40697599 217.84936523 79.92456055 C217.84478806 80.65784576 217.84021088 81.39113098 217.835495 82.14663696 C217.91909074 88.18267738 219.25243958 93.51888209 222.828125 98.51953125 C228.82080747 104.27418661 233.3785763 106.44332692 241.6875 106.75 C248.67608731 106.54986863 253.13709701 105.27099312 258.21875 100.44140625 C265.22287711 92.84881764 265.59748917 86.28687127 265.56567383 76.28271484 C265.56249872 74.18665267 265.58605575 72.09198328 265.61132812 69.99609375 C265.61359992 68.66146011 265.61430517 67.32682268 265.61328125 65.9921875 C265.61626221 64.78288574 265.61924316 63.57358398 265.62231445 62.32763672 C265.49911829 59.34539869 265.49911829 59.34539869 263.91479492 57.45751953 C262.13522598 56.12032151 262.13522598 56.12032151 259.25 55.3125 C259.25 49.3725 259.25 43.4325 259.25 37.3125 C260.9 36.6525 262.55 35.9925 264.25 35.3125 C265.60581774 32.60086451 265.39459038 30.41941365 265.42578125 27.38671875 C265.44962891 26.19755859 265.47347656 25.00839844 265.49804688 23.78320312 C265.54081308 21.27295623 265.5721731 18.76248759 265.59179688 16.25195312 C265.63336914 14.46241211 265.63336914 14.46241211 265.67578125 12.63671875 C265.69036377 11.54447998 265.70494629 10.45224121 265.7199707 9.3269043 C266.36594443 5.65309612 267.68578984 3.97260209 270.25 1.3125 C272.85951236 0.00774382 274.77701285 0.19948428 277.6953125 0.21484375 C279.30986328 0.21967773 279.30986328 0.21967773 280.95703125 0.22460938 C282.08496094 0.23298828 283.21289062 0.24136719 284.375 0.25 C285.51066406 0.25451172 286.64632813 0.25902344 287.81640625 0.26367188 C290.62765638 0.27548385 293.4388023 0.29195493 296.25 0.3125 C297.69307807 4.35978303 298.67903164 8.22737862 299.33154297 12.47192383 C299.51868866 13.67210648 299.70583435 14.87228912 299.89865112 16.10884094 C300.19245163 18.04463264 300.19245163 18.04463264 300.4921875 20.01953125 C300.70347554 21.38603418 300.91524679 22.75246248 301.12747192 24.11882019 C301.68614007 27.72360275 302.23868247 31.32929729 302.78979492 34.9352417 C303.33702495 38.51007269 303.8892379 42.08413213 304.44140625 45.65820312 C304.65896655 47.06676064 304.87651623 48.4753198 305.09405518 49.88388062 C305.20116066 50.57734966 305.30826614 51.27081871 305.41861725 51.98530197 C305.74190158 54.08017849 306.06448089 56.17516256 306.38690186 58.27017212 C308.14504653 69.6861981 309.95709141 81.09321727 311.79644775 92.49642944 C312.61859817 97.60109734 313.43380373 102.70687735 314.25 107.8125 C314.58330554 109.89583778 314.91663556 111.97917164 315.25 114.0625 C315.91666667 118.22916667 316.58333333 122.39583333 317.25 126.5625 C317.4152417 127.5949585 317.5804834 128.62741699 317.75073242 129.69116211 C318.08200568 131.76222745 318.41290126 133.83335324 318.7434082 135.90454102 C319.6050797 141.30114665 320.47444322 146.69636145 321.35546875 152.08984375 C321.53658203 153.20488281 321.71769531 154.31992187 321.90429688 155.46875 C322.24819339 157.58503625 322.59437692 159.70095274 322.94335938 161.81640625 C323.09998047 162.78320312 323.25660156 163.75 323.41796875 164.74609375 C323.55485107 165.58197021 323.6917334 166.41784668 323.83276367 167.27905273 C324.42824266 171.60838357 324.81515963 175.96409632 325.25 180.3125 C205.13 180.3125 85.01 180.3125 -38.75 180.3125 C-38.172089 174.53339005 -37.60495493 168.93473728 -36.70605469 163.22753906 C-36.50204041 161.92367249 -36.29802612 160.61980591 -36.08782959 159.27642822 C-35.86594051 157.87697863 -35.64395284 156.47754466 -35.421875 155.078125 C-35.18845476 153.59490121 -34.95524413 152.11164442 -34.722229 150.62835693 C-34.23305088 147.51823865 -33.74201626 144.40842135 -33.24951172 141.29882812 C-32.63388208 137.4115353 -32.02176245 133.52370128 -31.41098785 129.63564301 C-30.81201637 125.82455645 -30.21071987 122.01383764 -29.609375 118.203125 C-29.49102798 117.45173752 -29.37268097 116.70035004 -29.25074768 115.92619324 C-27.97814825 107.8560201 -26.67423299 99.79347106 -25.27539062 91.74414062 C-25.03986357 90.37775228 -24.80436893 89.01135835 -24.56890869 87.6449585 C-24.1325347 85.12908358 -23.6886041 82.6145015 -23.23529053 80.10162354 C-20.79789513 68.54505591 -20.79789513 68.54505591 -22.75 57.3125 C-24.76669827 56.17899466 -24.76669827 56.17899466 -26.75 55.3125 C-26.4420761 52.52025806 -26.12887563 49.72878573 -25.8125 46.9375 C-25.72548828 46.1434375 -25.63847656 45.349375 -25.54882812 44.53125 C-24.86328125 38.5390625 -24.86328125 38.5390625 -23.75 36.3125 C-22.63625 36.044375 -21.5225 35.77625 -20.375 35.5 C-17.63466882 34.35353492 -16.90075719 33.66867824 -15.7265625 30.89453125 C-14.89943807 27.3859228 -14.2857331 23.87422402 -13.75 20.3125 C-13.48255607 18.63008332 -13.21428302 16.9477983 -12.9453125 15.265625 C-12.53344058 12.67810021 -12.12911732 10.09073 -11.75097656 7.49804688 C-10.46031089 -1.24701748 -8.09450862 0.08478885 0 0 Z " fill="#FEF2D6" transform="translate(112.75,211.6875)"/>
<path d="M0 0 C0.77692707 -0.00495952 1.55385414 -0.00991903 2.35432446 -0.01502883 C4.97937345 -0.02806789 7.60392067 -0.01957419 10.22898293 -0.01129913 C12.12129569 -0.01618412 14.01360547 -0.02237209 15.90591013 -0.02975702 C21.12284585 -0.0462296 26.33963118 -0.04382379 31.55658388 -0.03838205 C37.17633027 -0.03572083 42.79603574 -0.05022656 48.41576576 -0.06247711 C59.43209647 -0.08357197 70.44837459 -0.08806964 81.4647231 -0.08628923 C90.41579866 -0.08498361 99.36685776 -0.08877548 108.31793022 -0.09621429 C110.89245021 -0.0983134 113.4669702 -0.100411 116.0414902 -0.10250711 C117.32274758 -0.10355064 118.60400495 -0.10459417 119.92408831 -0.10566932 C137.28349081 -0.11921041 154.64288219 -0.12679234 172.00228882 -0.12234497 C172.68149754 -0.12217302 173.36070626 -0.12200106 174.06049706 -0.1218239 C177.5031809 -0.12093497 180.94586472 -0.11999016 184.38854854 -0.11902589 C185.41418299 -0.11873934 185.41418299 -0.11873934 186.46053733 -0.118447 C187.84325974 -0.11805991 189.22598215 -0.11766958 190.60870455 -0.11727602 C212.1252105 -0.11130562 233.6416089 -0.12674371 255.15809059 -0.15888214 C279.31937606 -0.19494022 303.48057221 -0.21425055 327.64189208 -0.20934343 C340.43949296 -0.20709526 353.23698724 -0.21239255 366.03456688 -0.23723602 C376.92956966 -0.25820529 387.82440739 -0.26188472 398.71941684 -0.24293643 C404.28154955 -0.2337515 409.84337417 -0.23271976 415.40548325 -0.25329208 C420.49324942 -0.27190234 425.58045303 -0.26761092 430.66819711 -0.24474627 C432.51273409 -0.24053522 434.35731336 -0.24484383 436.20180576 -0.25834221 C438.70229762 -0.27540087 441.20080254 -0.26188896 443.70121765 -0.24050903 C444.78482057 -0.25892532 444.78482057 -0.25892532 445.89031446 -0.27771366 C449.76955293 -0.20803925 451.38222827 0.30808235 454.45800745 2.75729132 C456.47644997 5.38311005 456.47644997 5.38311005 456.54676247 8.0198288 C455.01445251 12.83486118 453.25273544 17.51479629 451.35144997 22.19561005 C450.80230934 23.61583466 450.80230934 23.61583466 450.24207497 25.06475067 C446.781593 33.61590765 442.20170755 41.15862395 434.35144997 46.32061005 C433.14102028 47.1385202 433.14102028 47.1385202 431.90613747 47.9729538 C424.6463921 52.1864073 417.49904767 52.53069835 409.30579567 52.54082489 C408.40265633 52.54590561 407.49951698 52.55098633 406.56900978 52.55622101 C404.61619777 52.56688701 402.66337382 52.57552183 400.71054459 52.58234024 C397.62172176 52.59416434 394.53303654 52.61362266 391.44426918 52.6354599 C382.66524739 52.69698394 373.88624345 52.75123737 365.1070652 52.78447723 C359.73136784 52.80537628 354.35592786 52.84063034 348.9803772 52.88523483 C346.93143864 52.89942144 344.88245462 52.90812324 342.83346939 52.91128922 C339.97501027 52.91617688 337.11724057 52.9392755 334.25892067 52.96660614 C333.40951408 52.96360001 332.5601075 52.96059387 331.68496132 52.95749664 C327.44959151 52.90202998 327.44959151 52.90202998 323.75919819 54.68885994 C321.63348195 57.49649974 322.11399181 60.00016726 322.47644997 63.38311005 C324.08140968 65.60677982 324.98003382 66.29399012 327.69744301 66.78183746 C328.99316986 66.79849205 328.99316986 66.79849205 330.31507301 66.81548309 C331.29586327 66.83527725 332.27665352 66.85507141 333.28716469 66.87546539 C334.34349602 66.88185532 335.39982735 66.88824524 336.48816872 66.8948288 C337.57153008 66.91278 338.65489143 66.9307312 339.77108192 66.94922638 C343.23533153 67.00345989 346.69944235 67.03726749 350.16394997 67.07061005 C352.51097455 67.10377154 354.85798078 67.13826009 357.20496559 67.17412567 C362.96200259 67.25919378 368.71905727 67.32748837 374.47644997 67.38311005 C374.53434003 70.84137346 374.57000817 74.29951298 374.60144997 77.75811005 C374.61820778 78.7429538 374.63496559 79.72779755 374.65223122 80.74248505 C374.65867653 81.68350067 374.66512184 82.6245163 374.67176247 83.59404755 C374.6822361 84.46335907 374.69270973 85.33267059 374.70350075 86.22832489 C374.47644997 88.38311005 374.47644997 88.38311005 372.47644997 90.38311005 C370.30674553 90.63380837 370.30674553 90.63380837 367.55072975 90.63479233 C365.97907869 90.64261557 365.97907869 90.64261557 364.37567711 90.65059686 C362.63553526 90.64390469 362.63553526 90.64390469 360.86023903 90.63707733 C359.6348756 90.64019731 358.40951218 90.64331729 357.14701653 90.64653182 C353.73484708 90.65315171 350.32289628 90.65073831 346.9107399 90.64455938 C343.23516633 90.6400506 339.55961245 90.6470108 335.88404274 90.65251923 C328.67929749 90.66143177 321.47459382 90.65948296 314.26984692 90.65369394 C308.41655129 90.64918476 302.56326734 90.64856132 296.70997047 90.65074158 C295.87821053 90.65104804 295.04645058 90.65135451 294.18948579 90.65167026 C292.50000031 90.65230969 290.81051484 90.65295811 289.12102938 90.65361544 C273.26330481 90.65932419 257.40560334 90.65275232 241.54788256 90.64201471 C227.92900804 90.63307871 214.31016762 90.6346306 200.69129372 90.64385223 C184.89191437 90.65454527 169.09255529 90.65877482 153.29317284 90.65262771 C151.60975838 90.65199058 149.92634392 90.65136184 148.24292946 90.65074158 C147.00038694 90.65027875 147.00038694 90.65027875 145.73274255 90.64980657 C139.88367557 90.64807673 134.0346214 90.65100096 128.18555641 90.65570068 C121.06151754 90.6612988 113.93752276 90.6598157 106.81348896 90.6491392 C103.17582394 90.643868 99.53823255 90.64185021 95.90056801 90.6484375 C91.96455696 90.65545747 88.02866757 90.64709907 84.0926609 90.63707733 C82.93256634 90.64153877 81.77247177 90.64600022 80.57722282 90.65059686 C79.52945545 90.64538136 78.48168808 90.64016587 77.40217018 90.63479233 C76.49268497 90.63446762 75.58319977 90.63414292 74.6461544 90.63380837 C72.47644997 90.38311005 72.47644997 90.38311005 70.47644997 88.38311005 C70.24939919 86.22832489 70.24939919 86.22832489 70.28113747 83.59404755 C70.28758278 82.65303192 70.29402809 81.7120163 70.30066872 80.74248505 C70.32580544 79.26521942 70.32580544 79.26521942 70.35144997 77.75811005 C70.3604734 76.76553192 70.36949684 75.7729538 70.37879372 74.75029755 C70.4024088 72.29432871 70.43534197 69.83883836 70.47644997 67.38311005 C71.63327435 67.3797999 72.79009874 67.37648975 73.98197842 67.3730793 C101.42611522 67.29410737 128.8702029 67.20490493 156.31426479 67.10305844 C159.69018496 67.09053916 163.06610545 67.07810645 166.44202614 67.06572723 C167.11412753 67.06326124 167.78622892 67.06079525 168.47869702 67.05825453 C179.36952057 67.01850178 190.26035452 66.98576559 201.15120838 66.95561023 C212.32142527 66.92452562 223.49160098 66.88578035 234.66176957 66.84031999 C240.93790345 66.81502156 247.21400584 66.7932502 253.49017715 66.77976608 C259.39244116 66.76697604 265.29459734 66.74495486 271.19680214 66.71572685 C273.36764488 66.70662709 275.538505 66.70095529 277.70936584 66.69889641 C280.66430643 66.69559077 283.61893817 66.68015961 286.5738163 66.66158295 C287.44054114 66.66351768 288.30726598 66.66545242 289.20025522 66.66744578 C294.13177911 66.62188798 294.13177911 66.62188798 298.47644997 64.38311005 C298.84007814 62.17585931 298.84007814 62.17585931 298.66394997 59.75811005 C298.63687965 58.94084442 298.60980934 58.1235788 298.58191872 57.28154755 C298.54711403 56.65506317 298.51230934 56.0285788 298.47644997 55.38311005 C295.454678 53.64235963 293.28564375 53.13257342 289.81111908 53.12977695 C288.87228846 53.12416156 287.93345785 53.11854616 286.96617782 53.1127606 C285.93798529 53.1167417 284.90979276 53.12072279 283.85044289 53.12482452 C282.75560526 53.12114882 281.66076763 53.11747311 280.53275311 53.11368603 C276.85101531 53.1036776 273.1694277 53.10786257 269.48768044 53.11186981 C266.85309677 53.10748431 264.21852677 53.10229341 261.58394814 53.09603119 C255.90311983 53.083982 250.22231959 53.07887801 244.54147911 53.0781498 C236.31703181 53.076824 228.09265256 53.06171022 219.86822928 53.04265463 C206.51043106 53.01180316 193.1526311 52.98764395 179.79480934 52.96977997 C178.99521908 52.96870729 178.19562881 52.96763461 177.37180854 52.96652942 C168.45724798 52.95471723 159.54268673 52.94451144 150.62812233 52.93608856 C147.39885392 52.93301484 144.16958552 52.92992601 140.94031715 52.92681122 C139.74512183 52.92566321 139.74512183 52.92566321 138.52578114 52.92449201 C125.22533177 52.91139644 111.92493151 52.8867356 98.62451851 52.85306782 C90.42482806 52.83280746 82.22524274 52.82248434 74.02552707 52.82505702 C68.4015598 52.82609454 62.77767544 52.81641595 57.15373711 52.79841799 C53.91197554 52.78840376 50.67043392 52.78485936 47.42865753 52.79118538 C43.9070381 52.79733608 40.3859336 52.78507721 36.8643589 52.76837921 C35.8495507 52.77459103 34.83474251 52.78080284 33.78918254 52.78720289 C25.33459407 52.71436375 17.29950612 51.25358379 10.28894997 46.25811005 C9.53227028 45.73990692 8.77559059 45.2217038 7.99598122 44.68779755 C0.69773132 38.01187904 -3.34307897 30.26774681 -7.02355003 21.19561005 C-7.47730003 20.14180145 -7.93105003 19.08799286 -8.39855003 18.00225067 C-8.82136253 16.97937958 -9.24417503 15.95650848 -9.67980003 14.9026413 C-10.05942894 13.98587616 -10.43905785 13.06911102 -10.83019066 12.12456512 C-11.67089947 8.80050905 -11.45246989 6.6724695 -10.52355003 3.38311005 C-7.95316119 -0.55289728 -4.26148727 -0.03781443 0 0 Z " fill="#E8E8FE" transform="translate(33.523550033569336,406.6168899536133)"/>
<path d="M0 0 C0.86880295 -0.00619858 1.7376059 -0.01239716 2.63273621 -0.01878357 C4.47609337 -0.02588605 6.31951463 -0.02270021 8.1628418 -0.01000977 C10.93339566 0.00367376 13.70044426 -0.02998328 16.47070312 -0.06835938 C32.12981967 -0.13720149 44.68575193 2.46287603 57.16796875 12.56640625 C58.74578125 13.71109375 58.74578125 13.71109375 60.35546875 14.87890625 C70.23552565 24.31984951 75.32339155 36.57816026 77.51245117 49.85473633 C77.81152894 51.56334823 77.81152894 51.56334823 78.11664867 53.30647755 C78.82167161 57.38982496 79.49758323 61.47726657 80.16796875 65.56640625 C80.43711059 67.19708015 80.70630966 68.82774461 80.97555923 70.45840073 C83.07307086 83.1952312 85.10862131 95.94181765 87.1366694 108.68986106 C88.01773592 114.22346372 88.90266842 119.75644819 89.78715515 125.289505 C91.4542138 135.72172415 93.11789779 146.15447841 94.78030699 156.58743936 C96.6761463 168.48427517 98.57584288 180.38049408 100.47583067 192.27666795 C104.37743991 216.7059066 108.27431191 241.13589894 112.16796875 265.56640625 C113.543479 265.5804248 113.543479 265.5804248 114.94677734 265.59472656 C118.395263 265.63911086 121.84257388 265.70088549 125.29052734 265.77392578 C126.77413833 265.80190631 128.25789205 265.82323319 129.74169922 265.83740234 C139.45687444 265.93566777 148.6998005 266.15857191 156.60546875 272.53125 C157.12109375 273.18222656 157.63671875 273.83320313 158.16796875 274.50390625 C158.70421875 275.15230469 159.24046875 275.80070312 159.79296875 276.46875 C163.77437303 282.54265369 163.92575393 288.50250309 163.16796875 295.56640625 C162.01156588 299.92411206 160.37524093 303.98748569 158.60546875 308.12890625 C158.18716797 309.17498047 157.76886719 310.22105469 157.33789062 311.29882812 C150.76230473 327.22855577 141.597063 339.87844656 125.35913086 346.75610352 C116.0385057 349.89305086 107.55141144 350.04117824 97.85546875 349.81640625 C96.32489353 349.79628205 94.79429235 349.77804189 93.26367188 349.76171875 C89.56455189 349.71825714 85.86643481 349.64956816 82.16796875 349.56640625 C82.1836792 350.19095703 82.19938965 350.81550781 82.21557617 351.45898438 C82.27848919 354.32803042 82.31713606 357.19693067 82.35546875 360.06640625 C82.38060547 361.04867188 82.40574219 362.0309375 82.43164062 363.04296875 C82.50324353 370.20325923 82.06210497 376.1646292 77.23046875 381.84375 C76.54984375 382.39160156 75.86921875 382.93945312 75.16796875 383.50390625 C74.48734375 384.06980469 73.80671875 384.63570313 73.10546875 385.21875 C69.76385214 387.54305994 66.95516109 387.69254716 63.00543499 387.69783401 C61.39269681 387.70359573 61.39269681 387.70359573 59.74737805 387.70947385 C57.9690068 387.70817412 57.9690068 387.70817412 56.15470886 387.70684814 C54.89864486 387.70981927 53.64258085 387.71279039 52.3484543 387.71585155 C48.85512721 387.7239293 45.36182066 387.72571155 41.86848533 387.72644901 C38.10355634 387.72829821 34.33863803 387.73584486 30.57371521 387.74258423 C22.33821692 387.75617342 14.1027235 387.76219313 5.86721587 387.76659489 C0.72644621 387.76935623 -4.41432156 387.77359337 -9.55508995 387.77809906 C-23.78412286 387.79029232 -38.01315425 387.80059163 -52.24219227 387.80397415 C-53.1531018 387.80419372 -54.06401133 387.80441328 -55.00252418 387.8046395 C-56.37218457 387.80496692 -56.37218457 387.80496692 -57.76951486 387.80530095 C-59.61986212 387.80574442 -61.47020938 387.80619098 -63.32055664 387.80664062 C-64.23839562 387.80686205 -65.15623461 387.80708348 -66.10188689 387.80731162 C-80.97714278 387.81126039 -95.8523497 387.82871655 -110.72758666 387.85200015 C-125.9941801 387.87570375 -141.26074895 387.88817554 -156.52736109 387.88934207 C-165.10126867 387.89025937 -173.67511244 387.89602554 -182.24900246 387.91416168 C-189.54931119 387.92954928 -196.84953641 387.93469107 -204.14985827 387.92642358 C-207.87515056 387.92251234 -211.6002746 387.92346961 -215.32554626 387.93748093 C-219.36309302 387.95252801 -223.40025934 387.94436746 -227.43782043 387.93389893 C-229.20615344 387.94598353 -229.20615344 387.94598353 -231.01021034 387.95831227 C-237.65983952 387.9178499 -242.47586602 387.52815035 -247.66015625 382.953125 C-248.129375 382.39238281 -248.59859375 381.83164062 -249.08203125 381.25390625 C-249.5615625 380.70089844 -250.04109375 380.14789063 -250.53515625 379.578125 C-254.47542545 373.46596043 -254.07455824 367.19782291 -253.95703125 360.19140625 C-253.94800781 359.16917969 -253.93898438 358.14695312 -253.9296875 357.09375 C-253.90623555 354.58439103 -253.8734148 352.07552289 -253.83203125 349.56640625 C-254.76362061 349.58735352 -255.69520996 349.60830078 -256.6550293 349.62988281 C-260.17580437 349.69884487 -263.6958421 349.74858137 -267.21704102 349.78613281 C-268.72887637 349.80601062 -270.24063735 349.83312298 -271.75219727 349.86816406 C-288.26080544 350.24074467 -302.10138271 346.88180723 -314.58203125 335.31640625 C-321.79683102 327.42807113 -326.33619745 317.96527105 -330.26953125 308.12890625 C-330.71490234 307.08669922 -331.16027344 306.04449219 -331.61914062 304.97070312 C-335.00524717 296.58085695 -336.91399426 287.83826329 -333.26953125 279.19140625 C-329.79064284 273.32001914 -324.96021114 269.58649152 -318.57208252 267.23225403 C-312.32989519 265.71536761 -305.72797312 265.97647384 -299.33203125 265.87890625 C-297.82679407 265.84568342 -296.32158438 265.81118928 -294.81640625 265.77539062 C-291.15514933 265.69105489 -287.49381819 265.62397952 -283.83203125 265.56640625 C-283.73779751 264.9628748 -283.64356377 264.35934336 -283.54647446 263.73752308 C-281.25137762 249.04536456 -278.93899509 234.35600532 -276.6074028 219.66959858 C-275.48027133 212.56725241 -274.35898556 205.46407548 -273.25146484 198.35864258 C-272.2860164 192.1647891 -271.30959355 185.97278272 -270.32001138 179.78273743 C-269.79651922 176.50573163 -269.28017138 173.2278575 -268.77367401 169.94817543 C-268.20699705 166.28500531 -267.6209751 162.62542599 -267.03027344 158.96606445 C-266.78534904 157.3379483 -266.78534904 157.3379483 -266.53547668 155.67694092 C-264.98748638 146.31843663 -264.98748638 146.31843663 -260.83203125 142.56640625 C-258.54296875 142.19140625 -258.54296875 142.19140625 -256.20703125 142.56640625 C-255.04300781 142.72109375 -255.04300781 142.72109375 -253.85546875 142.87890625 C-251.83203125 143.56640625 -251.83203125 143.56640625 -249.83203125 146.56640625 C-248.8949561 154.55435756 -250.4174246 162.58598659 -251.7734375 170.4375 C-251.97666626 171.65812637 -252.17989502 172.87875275 -252.38928223 174.1363678 C-252.82464354 176.7449778 -253.2630297 179.35283692 -253.70706177 181.95996094 C-254.40181838 186.03958276 -255.08484232 190.12111028 -255.76538086 194.203125 C-255.99505542 195.58017234 -256.22474599 196.95721702 -256.45445251 198.33425903 C-256.56821669 199.01631535 -256.68198086 199.69837166 -256.79919243 200.40109634 C-257.144688 202.46968849 -257.49137725 204.53807736 -257.83839417 206.60641479 C-260.08610506 220.01341067 -262.22146625 233.43750227 -264.3352356 246.86618042 C-264.61315863 248.6310106 -264.89141134 250.39578891 -265.17004395 252.1605072 C-265.41667963 253.72322134 -265.66237042 255.28608507 -265.90686035 256.84913635 C-266.47371097 260.44401956 -267.11786227 263.99556136 -267.83203125 267.56640625 C-147.71203125 267.56640625 -27.59203125 267.56640625 96.16796875 267.56640625 C94.84796875 260.96640625 93.52796875 254.36640625 92.16796875 247.56640625 C91.62376481 244.16278591 91.10381183 240.79257537 90.66796875 237.37890625 C90.42894942 235.61953714 90.18797557 233.86043274 89.9453125 232.1015625 C89.82140137 231.20324707 89.69749023 230.30493164 89.56982422 229.37939453 C88.85115963 224.34874239 88.04041964 219.33303957 87.23046875 214.31640625 C87.06160156 213.27009033 86.89273437 212.22377441 86.71875 211.14575195 C86.37431693 209.01571393 86.02942579 206.88574993 85.68408203 204.75585938 C85.01552849 200.62436295 84.35433896 196.4917078 83.69403076 192.35888672 C82.55322789 185.21890878 81.41211058 178.07898775 80.26245117 170.94042969 C77.39087441 153.08849661 74.62456165 135.22072352 71.86889648 117.35058594 C71.27812394 113.52133802 70.68601567 109.69229847 70.09375 105.86328125 C69.91459549 104.69883484 69.73544098 103.53438843 69.55085754 102.33465576 C69.38365707 101.25452209 69.2164566 100.17438843 69.04418945 99.06152344 C68.82579155 97.64574005 68.82579155 97.64574005 68.60298157 96.20135498 C68.18057013 93.642735 67.69226926 91.10591891 67.16796875 88.56640625 C63.27252998 88.42087026 59.37779224 88.33225566 55.48046875 88.25390625 C54.37767578 88.21201172 53.27488281 88.17011719 52.13867188 88.12695312 C47.46209742 88.05631001 44.12943708 88.06941537 39.93359375 90.23828125 C37.07052685 95.63503567 37.54552621 101.11887809 37.60546875 107.12890625 C37.62205886 109.56765225 37.62149755 112.00659155 37.6015625 114.4453125 C37.61243896 115.52369385 37.62331543 116.6020752 37.63452148 117.71313477 C37.05324011 121.26804604 36.01436031 122.42011858 33.16796875 124.56640625 C29.66796875 125.12890625 29.66796875 125.12890625 26.16796875 124.56640625 C22.4799986 120.94524267 21.65281737 118.4092926 21.6015625 113.3046875 C21.58165488 110.8295068 21.58374556 108.35407168 21.60546875 105.87890625 C21.58162109 104.64978516 21.55777344 103.42066406 21.53320312 102.15429688 C21.54716704 93.42684825 22.85992353 86.24588632 28.92358398 79.65942383 C36.26492988 72.72094992 43.39768241 72.14389466 53.10546875 72.37890625 C54.70358398 72.39920898 54.70358398 72.39920898 56.33398438 72.41992188 C58.94584463 72.45505901 61.55663509 72.50425441 64.16796875 72.56640625 C63.71567408 69.25305321 63.255006 65.94091362 62.79296875 62.62890625 C62.60347656 61.23961914 62.60347656 61.23961914 62.41015625 59.82226562 C60.40821639 45.55844415 57.23490548 32.77750129 45.16796875 23.56640625 C36.42856208 18.29976381 29.21879659 16.44917552 19.06640625 16.390625 C17.50910075 16.3674478 15.951809 16.34333135 14.39453125 16.31835938 C11.96084042 16.28314916 9.52766563 16.25382235 7.09375 16.24047852 C4.72985319 16.22501421 2.36741696 16.18485141 0.00390625 16.140625 C-0.72220856 16.14253342 -1.44832336 16.14444183 -2.19644165 16.14640808 C-5.59272585 16.06417147 -7.50770962 15.80920708 -10.25927734 13.74926758 C-12.48796518 10.65602046 -12.83203125 8.35361396 -12.83203125 4.56640625 C-9.51585272 -0.43386093 -5.47382888 -0.03274477 0 0 Z M-318.30962992 284.94058752 C-320.05095279 287.44071493 -320.05095279 287.44071493 -319.83984375 290.203125 C-318.38950704 295.04320217 -316.60778892 299.69939193 -314.70703125 304.37890625 C-314.15789062 305.79913086 -314.15789062 305.79913086 -313.59765625 307.24804688 C-310.19987448 315.64426611 -305.62788804 323.23091319 -298.01953125 328.44140625 C-297.27058594 328.97507812 -296.52164063 329.50875 -295.75 330.05859375 C-287.87470856 334.12802145 -280.19807436 335.00525986 -271.44412231 334.95167542 C-270.33992474 334.95691111 -269.23572717 334.96214681 -268.09806907 334.96754116 C-264.42089771 334.98144152 -260.74408048 334.97421669 -257.06689453 334.96704102 C-254.42168415 334.97278649 -251.77650235 334.97972442 -249.13130188 334.9881897 C-243.44728065 335.00411878 -237.76333059 335.0094452 -232.07928848 335.00766182 C-223.85690945 335.00527249 -215.63464372 335.02130086 -207.41229437 335.04211437 C-194.06425921 335.07559135 -180.71623423 335.09728634 -167.36816406 335.11010742 C-166.57039295 335.11087691 -165.77262183 335.1116464 -164.95067583 335.11243921 C-161.71776177 335.11554184 -158.48484769 335.11862465 -155.25193358 335.12167925 C-146.33917719 335.13022029 -137.4264243 335.14111938 -128.51367188 335.15307617 C-127.71505891 335.15414419 -126.91644595 335.15521221 -126.09363259 335.15631259 C-112.78625467 335.17439352 -99.47890105 335.20037481 -86.17154682 335.23120731 C-77.96684968 335.24976822 -69.76220705 335.26067748 -61.55748861 335.26172923 C-55.94205163 335.26283121 -50.3266521 335.27076539 -44.71123095 335.28411288 C-41.47020957 335.29154271 -38.22928695 335.29452221 -34.98825645 335.29099464 C-31.47809805 335.28761138 -27.96817365 335.29633613 -24.45803833 335.30812073 C-23.4298458 335.30413963 -22.40165327 335.30015854 -21.3423034 335.29605681 C-19.93405747 335.3044799 -19.93405747 335.3044799 -18.49736214 335.31307316 C-17.28203432 335.31405131 -17.28203432 335.31405131 -16.04215443 335.31504923 C-13.59195762 335.59370979 -11.95590836 336.3429056 -9.83203125 337.56640625 C-9.75106322 339.02383088 -9.69285351 340.48253432 -9.64453125 341.94140625 C-9.60972656 342.75351562 -9.57492187 343.565625 -9.5390625 344.40234375 C-9.63574219 345.11648438 -9.73242188 345.830625 -9.83203125 346.56640625 C-13.77678571 349.19624255 -17.15572558 348.85510042 -21.73466492 348.84487915 C-22.65602747 348.85067155 -23.57739003 348.85646395 -24.52667266 348.86243188 C-27.6267849 348.87949323 -30.72674883 348.88231366 -33.8269043 348.88525391 C-36.04407112 348.89454785 -38.26123443 348.90471571 -40.47839355 348.91569519 C-46.50900784 348.94306945 -52.53959867 348.95816657 -58.57025886 348.97112322 C-64.86838465 348.98672133 -71.16646232 349.01352207 -77.46455383 349.03915405 C-88.03926123 349.0806735 -98.61397382 349.11525115 -109.1887207 349.14453125 C-120.08131804 349.1747104 -130.97388906 349.20905774 -141.86645508 349.24902344 C-142.87338383 349.25271576 -142.87338383 349.25271576 -143.90065458 349.25648268 C-147.26825896 349.26885715 -150.63586303 349.28131371 -154.00346696 349.29381108 C-181.94628598 349.39721855 -209.88913599 349.48645023 -237.83203125 349.56640625 C-237.88992131 353.02466967 -237.92558946 356.48280918 -237.95703125 359.94140625 C-237.97378906 360.92625 -237.99054688 361.91109375 -238.0078125 362.92578125 C-238.01425781 363.86679687 -238.02070313 364.8078125 -238.02734375 365.77734375 C-238.03781738 366.64665527 -238.04829102 367.5159668 -238.05908203 368.41162109 C-238.03798234 370.77986564 -238.03798234 370.77986564 -235.83203125 372.56640625 C-233.57004996 372.86969778 -233.57004996 372.86969778 -230.90631104 372.81808853 C-229.85854366 372.82330403 -228.81077629 372.82851952 -227.73125839 372.83389306 C-226.57116383 372.82943162 -225.41106926 372.82497017 -224.21582031 372.82037354 C-222.99045689 372.82349352 -221.76509346 372.8266135 -220.50259781 372.82982802 C-217.09042836 372.83644792 -213.67847757 372.83403451 -210.26632118 372.82785559 C-206.59074762 372.82334681 -202.91519373 372.830307 -199.23962402 372.83581543 C-192.03487878 372.84472798 -184.8301751 372.84277916 -177.6254282 372.83699015 C-171.77213257 372.83248096 -165.91884862 372.83185752 -160.06555176 372.83403778 C-159.23379181 372.83434425 -158.40203187 372.83465071 -157.54506707 372.83496647 C-155.8555816 372.83560589 -154.16609613 372.83625432 -152.47661066 372.83691165 C-136.6188861 372.84262039 -120.76118462 372.83604853 -104.90346384 372.82531092 C-91.28458933 372.81637491 -77.6657489 372.8179268 -64.046875 372.82714844 C-48.24749566 372.83784147 -32.44813657 372.84207102 -16.64875412 372.83592391 C-14.96533966 372.83528678 -13.2819252 372.83465804 -11.59851074 372.83403778 C-10.77014906 372.83372923 -9.94178738 372.83342068 -9.08832383 372.83310278 C-3.23925686 372.83137293 2.60979731 372.83429716 8.4588623 372.83899689 C15.58290118 372.844595 22.70689596 372.8431119 29.83092976 372.8324354 C33.46859478 372.8271642 37.10618617 372.82514641 40.74385071 372.8317337 C44.67986176 372.83875368 48.61575115 372.83039527 52.55175781 372.82037354 C54.29189966 372.8270657 54.29189966 372.8270657 56.06719589 372.83389306 C57.63884695 372.82606982 57.63884695 372.82606982 59.24224854 372.81808853 C60.15173374 372.81776383 61.06121895 372.81743912 61.99826431 372.81710458 C64.37885431 372.7697012 64.37885431 372.7697012 66.16796875 370.56640625 C66.4453812 368.33605328 66.4453812 368.33605328 66.36328125 365.77734375 C66.35683594 364.83632813 66.35039062 363.8953125 66.34375 362.92578125 C66.32699219 361.9409375 66.31023437 360.95609375 66.29296875 359.94140625 C66.27943359 358.45253906 66.27943359 358.45253906 66.265625 356.93359375 C66.24200991 354.47762491 66.20907674 352.02213457 66.16796875 349.56640625 C65.2571479 349.55760689 65.2571479 349.55760689 64.32792664 349.54862976 C58.017543 349.48477897 51.7076733 349.40038122 45.39770508 349.30395508 C43.04165414 349.27066605 40.68552269 349.24264664 38.3293457 349.2199707 C34.94577668 349.18649822 31.56294821 349.13418533 28.1796875 349.078125 C27.12335617 349.07173508 26.06702484 349.06534515 24.97868347 349.0587616 C23.99789322 349.03896744 23.01710297 349.01917328 22.0065918 348.9987793 C20.71086494 348.98212471 20.71086494 348.98212471 19.38896179 348.96513367 C16.6715526 348.47728633 15.77292847 347.79007602 14.16796875 345.56640625 C13.5109134 339.43388963 13.5109134 339.43388963 15.45155811 336.87173557 C18.47624416 334.57146353 22.26409201 335.14600485 25.91870117 335.16577148 C27.26070587 335.15530289 27.26070587 335.15530289 28.62982178 335.1446228 C31.59445531 335.12459096 34.55874217 335.12514601 37.5234375 335.125 C39.58507732 335.11322977 41.6467086 335.09986642 43.70832825 335.0849762 C49.14518574 335.04872319 54.58196773 335.02857412 60.0189209 335.01342773 C68.70366781 334.98864413 77.38824754 334.94879114 86.07283974 334.89152718 C89.10167498 334.87525129 92.13035195 334.87142437 95.15922546 334.86851501 C97.02957425 334.85873166 98.8999206 334.84846724 100.77026367 334.83764648 C101.60640701 334.84019943 102.44255035 334.84275238 103.30403137 334.84538269 C114.54944547 334.74808689 124.03639786 331.27194605 132.30078125 323.5703125 C138.2266538 317.21053715 141.31109255 309.24224569 144.60546875 301.31640625 C144.97220703 300.45249268 145.33894531 299.5885791 145.71679688 298.69848633 C148.30252959 292.26984501 148.30252959 292.26984501 147.16796875 285.56640625 C144.70830356 283.02206743 143.29181248 282.5800458 139.732656 282.18805742 C138.32806424 282.17113446 136.92321562 282.17079184 135.51857758 282.1832962 C134.74019706 282.17833669 133.96181655 282.17337717 133.15984875 282.16826737 C130.53588626 282.15525192 127.91242769 282.16371462 125.28845215 282.17199707 C123.39456364 282.16711099 121.50067811 282.16092251 119.6067977 282.15353918 C114.39019065 282.13708087 109.17373415 282.13946953 103.95711017 282.14491415 C98.33603718 282.14757707 92.715005 282.13306654 87.09394836 282.12081909 C76.07742187 282.09973239 65.06094796 282.09522607 54.04440367 282.09700698 C45.09382017 282.09831285 36.14325313 282.09451941 27.19267273 282.08708191 C24.61783838 282.0849828 22.04300404 282.0828852 19.46816969 282.08078909 C18.18674933 282.07974556 16.90532898 282.07870203 15.5850777 282.07762688 C-1.77388841 282.06408772 -19.13284341 282.05650306 -36.49181366 282.06095123 C-37.17088158 282.06112319 -37.8499495 282.06129514 -38.54959524 282.06147231 C-41.99153621 282.06236122 -45.43347717 282.06330604 -48.87541813 282.06427032 C-49.55902328 282.06446135 -50.24262844 282.06465238 -50.94694891 282.06484921 C-52.32936459 282.0652363 -53.71178026 282.06562662 -55.09419594 282.06602018 C-76.61085553 282.07199195 -98.12740762 282.05654558 -119.64404297 282.02441406 C-143.80679101 281.98836179 -167.96944976 281.96904473 -192.13223219 281.97395277 C-204.93034523 281.97620131 -217.72835167 281.97089812 -230.52644348 281.94606018 C-241.42035268 281.92509841 -252.31409684 281.92140411 -263.2080127 281.94035977 C-268.77002847 281.94954886 -274.33173608 281.95056382 -279.89372826 281.93000412 C-284.98016877 281.91140957 -290.06604626 281.91566724 -295.15246457 281.93854994 C-296.9976268 281.94276497 -298.84283124 281.93843929 -300.687949 281.924954 C-303.18687054 281.90792664 -305.68379631 281.92138078 -308.18264008 281.94278717 C-308.90738319 281.93050964 -309.6321263 281.91823212 -310.37883133 281.90558255 C-314.11459712 281.97293232 -315.5695512 282.31488237 -318.30962992 284.94058752 Z " fill="#010101" transform="translate(341.83203125,124.43359375)"/>
<path d="M0 0 C1.02609375 -0.03738281 2.0521875 -0.07476563 3.109375 -0.11328125 C9.51733805 0.75546001 13.87361197 5.57616569 18.25 10 C18.77110352 10.52456787 19.29220703 11.04913574 19.82910156 11.58959961 C30.25 22.30539839 30.25 22.30539839 30.25 28.3125 C31.23226562 28.26029297 31.23226562 28.26029297 32.234375 28.20703125 C46.56489181 27.78197355 59.72200313 32.175415 70.5625 41.6875 C72.1421271 43.21161305 73.70597252 44.75233286 75.25 46.3125 C75.88679687 46.91578125 76.52359375 47.5190625 77.1796875 48.140625 C87.34448949 58.53131148 91.57830748 75.03281926 96.18676758 88.47387695 C97.18984064 91.3817855 98.22433405 94.27730916 99.25976562 97.17382812 C107.42777456 120.55592369 107.42777456 120.55592369 102.25 132.6875 C97.71721357 140.45069478 91.6655629 146.09998204 83.25 149.3125 C80.2192792 149.99488226 77.22024975 150.27677889 74.125 150.5 C73.26100586 150.57331543 72.39701172 150.64663086 71.50683594 150.72216797 C68.75571538 150.94409631 66.00428513 151.13435008 63.25 151.3125 C62.3640918 151.37034668 61.47818359 151.42819336 60.56542969 151.48779297 C54.12988 151.88486002 47.69521199 152.13821785 41.25 152.3125 C39.69949951 152.35552246 39.69949951 152.35552246 38.11767578 152.39941406 C34.93255976 152.47602364 31.74829154 152.52432603 28.5625 152.5625 C27.59538086 152.58393066 26.62826172 152.60536133 25.63183594 152.62744141 C10.03981546 152.70004999 -2.21012704 146.39039581 -13.75 136.3125 C-14.7090625 135.51392578 -14.7090625 135.51392578 -15.6875 134.69921875 C-19.73912122 131.05456842 -21.66927929 127.4617328 -23.9375 122.5 C-26.13118185 117.95247845 -26.13118185 117.95247845 -30.15625 115.3125 C-32.10572642 115.09345771 -34.06171497 114.92875697 -36.01953125 114.8046875 C-41.04510691 114.14162726 -45.42444737 112.47266792 -50.125 110.625 C-50.9811792 110.30942139 -51.8373584 109.99384277 -52.71948242 109.66870117 C-58.49174801 107.3682794 -62.3658708 104.59374582 -65.75 99.3125 C-67.49535752 94.07642745 -67.6199592 88.60423472 -65.5 83.4375 C-62.64200409 78.27232194 -57.92586377 74.55737494 -53.52734375 70.73046875 C-50.85695503 68.47951613 -50.85695503 68.47951613 -49.00390625 66.48828125 C-47.75 65.3125 -47.75 65.3125 -45.75 65.3125 C-46.09933594 64.61125 -46.44867188 63.91 -46.80859375 63.1875 C-53.16211839 49.94049112 -53.16211839 49.94049112 -50.625 42.125 C-48.75672565 37.78275505 -46.01271626 34.89037478 -42.13671875 32.1875 C-38.46278728 30.84059223 -34.87689444 31.10391853 -31 31.1875 C-29.81083984 31.20103516 -29.81083984 31.20103516 -28.59765625 31.21484375 C-26.64830719 31.23832988 -24.69911425 31.27419863 -22.75 31.3125 C-22.64945313 30.33410156 -22.54890625 29.35570313 -22.4453125 28.34765625 C-21.80156908 23.889677 -20.32623982 19.90398704 -18.625 15.75 C-18.31731689 14.99783203 -18.00963379 14.24566406 -17.69262695 13.47070312 C-14.11376334 5.19599995 -9.37794275 0.22161805 0 0 Z " fill="#010101" transform="translate(215.75,-0.3125)"/>
<path d="M0 0 C2.79389362 0.0271996 5.58390122 -0.00008757 8.37768555 -0.03173828 C10.16480374 -0.0284403 11.95191953 -0.02204677 13.73901367 -0.01220703 C14.56813766 -0.02232819 15.39726166 -0.03244934 16.25151062 -0.0428772 C20.37094934 0.04120888 21.98985784 0.13103363 25.15429688 2.96679688 C26.57104492 5.65185547 26.57104492 5.65185547 26.07104492 9.27685547 C24.47983575 12.85707611 23.92293037 13.81812679 20.57104492 15.65185547 C17.869943 15.92985867 15.39044013 16.04564055 12.69213867 16.02294922 C11.11466276 16.04035101 9.53718885 16.05793515 7.9597168 16.07568359 C5.49377385 16.0856889 3.02797397 16.08936904 0.56201172 16.08764648 C-14.1797466 16.10993071 -25.2439579 17.92706691 -36.30004883 28.42919922 C-47.69189035 40.40900675 -49.17742061 56.88252123 -50.42895508 72.65185547 C-49.32938477 72.60544922 -48.22981445 72.55904297 -47.09692383 72.51123047 C-27.86719559 71.93603805 -27.86719559 71.93603805 -20.31176758 78.48779297 C-14.99510854 84.24566852 -12.05781579 89.64179128 -12.04418945 97.60351562 C-12.03881668 98.27096298 -12.03344391 98.93841034 -12.02790833 99.62608337 C-12.01817787 101.06485742 -12.01517178 102.50368982 -12.01826477 103.94249344 C-12.02276466 106.22109012 -12.00868443 108.49891915 -11.98986816 110.7774353 C-11.94696999 116.43196838 -11.93582969 122.08648261 -11.92364502 127.7411499 C-11.9121145 132.5294064 -11.888559 137.3173101 -11.84895325 142.10541916 C-11.83538963 144.34790652 -11.83955126 146.58991575 -11.84436035 148.83242798 C-11.83502032 150.20795298 -11.82485165 151.5834727 -11.8137207 152.95898438 C-11.81166626 154.15778229 -11.80961182 155.3565802 -11.80749512 156.59170532 C-11.39486623 159.92743265 -10.86077734 161.35416617 -8.42895508 163.65185547 C-4.67211404 163.9872877 -2.00899281 163.84520138 1.57104492 162.65185547 C3.06647675 158.64803413 2.68770529 154.36781063 2.67651367 150.15185547 C2.68998288 148.44220753 2.70500841 146.73257129 2.72143555 145.02294922 C2.74412754 142.34822159 2.7586527 139.67480948 2.74609375 137 C2.70877291 126.15274909 2.82376339 116.76174069 9.57104492 107.65185547 C15.84686492 101.45758339 22.44733855 97.57909859 31.38354492 97.21435547 C40.34735276 97.48293398 47.29415418 100.5193824 53.81323242 106.65576172 C60.93061827 114.73794876 61.6605488 122.78492072 62.19213867 133.17919922 C62.56877064 136.63101176 63.23751787 139.45044479 64.57104492 142.65185547 C68.39190445 145.0535386 72.15002273 145.04658959 76.57104492 144.65185547 C80.79902342 142.82613748 82.66482854 140.8091873 84.57104492 136.65185547 C84.98570108 133.3233358 84.94057172 130.02167384 84.90698242 126.67138672 C84.91950089 124.6824512 84.93253827 122.6935189 84.94604492 120.70458984 C84.94996258 117.58883114 84.94608754 114.47339372 84.93139648 111.35766602 C84.92276191 108.33676358 84.94462126 105.31717385 84.96948242 102.29638672 C84.95613861 101.37936478 84.9427948 100.46234283 84.92904663 99.51753235 C85.01414578 91.96423012 87.15419366 85.39151462 92.32650757 79.73054504 C100.34461984 72.22409377 108.60199484 72.17669576 119.12182617 72.18310547 C120.54518427 72.17599183 121.96853955 72.1682911 123.39189148 72.16003418 C126.36827572 72.14662916 129.34439491 72.14500191 132.32080078 72.15087891 C136.11023651 72.15676375 139.89838601 72.12621754 143.68757343 72.08576202 C146.62612092 72.05973995 149.56436491 72.05702071 152.5030117 72.06065369 C153.898696 72.05897515 155.29439628 72.04945629 156.6899662 72.0315094 C166.21248557 71.92253563 174.225888 72.72488781 181.47554016 79.40734863 C187.15744871 85.40986733 189.02553129 91.75896955 188.93994141 99.89453125 C188.94559113 101.08370651 188.94559113 101.08370651 188.95135498 102.29690552 C188.95775704 104.00632677 188.95748617 105.71578366 188.95116997 107.42520523 C188.94201899 110.13257754 188.95232749 112.83926338 188.9677887 115.54660034 C189.00778791 123.23939025 189.00908673 130.93212334 189.00683594 138.625 C189.00678484 143.34053003 189.02594346 148.05568665 189.05616951 152.77111435 C189.06698867 155.43523047 189.05487127 158.09863272 189.04234314 160.76272583 C189.05124697 162.39781398 189.06132115 164.03289632 189.07275391 165.66796875 C189.05813866 166.77464905 189.05813866 166.77464905 189.04322815 167.90368652 C189.09281676 171.45930961 189.50543296 173.54305913 191.35609436 176.61178589 C194.00012599 179.04705853 195.92125614 179.24529903 199.47338867 179.31591797 C203.13004622 178.15831688 204.35925616 176.8310647 206.57104492 173.65185547 C207.21271658 169.32028516 207.13335615 165.02322776 207.07104492 160.65185547 C206.88442508 147.55975549 206.88442508 147.55975549 209.91088867 144.37451172 C213.17145466 142.26304387 214.75996656 141.92207451 218.57104492 142.65185547 C221.519798 144.87078547 222.47055008 146.05362672 223.08862305 149.73291016 C223.09539062 151.51036621 223.09539062 151.51036621 223.10229492 153.32373047 C223.10745117 154.62826172 223.11260742 155.93279297 223.11791992 157.27685547 C223.10954102 157.95490234 223.10116211 158.63294922 223.0925293 159.33154297 C223.07124841 161.38224622 223.09226288 163.42939069 223.11791992 165.47998047 C223.08317757 174.30453698 222.28426332 179.76148625 216.89526367 186.85888672 C210.97547264 192.66565072 206.41588948 194.7836634 198.13354492 195.08935547 C189.29743358 194.84643832 184.36769753 191.82489027 178.11401367 185.82373047 C174.0140133 180.05259071 173.1297459 174.14286595 173.20214844 167.27978516 C173.19649872 166.08798141 173.19649872 166.08798141 173.19073486 164.87210083 C173.18434158 163.1621493 173.18459529 161.45216217 173.19091988 159.74221039 C173.20008214 157.03503324 173.18975057 154.3285409 173.17430115 151.62139893 C173.13432667 143.93038887 173.13300627 136.23943657 173.13525391 128.54833984 C173.13530495 123.83166131 173.11617466 119.11535687 173.08592033 114.39878082 C173.07509021 111.73295529 173.08722325 109.06784127 173.0997467 106.40203857 C173.09084519 104.7701344 173.08077182 103.13823604 173.06933594 101.50634766 C173.07907944 100.76653656 173.08882294 100.02672546 173.09886169 99.26449585 C173.05035557 95.80077065 172.83351848 93.98624394 170.66490173 91.22344971 C167.22321313 88.64020813 165.18818853 88.51149746 160.91552734 88.45898438 C159.73057175 88.44292145 158.54561615 88.42685852 157.32475281 88.41030884 C151.90318261 88.36595584 146.48175817 88.32435457 141.06005859 88.30175781 C138.19742859 88.2884217 135.33551201 88.26057668 132.47314453 88.21972656 C128.3533117 88.16093182 124.23424415 88.14309867 120.11401367 88.12841797 C118.19349434 88.09441391 118.19349434 88.09441391 116.23417664 88.0597229 C109.43545697 88.04553931 109.43545697 88.04553931 103.25561523 90.55151367 C100.8306065 95.0145841 100.95420642 98.77828436 101.07495117 103.78076172 C101.07311942 105.80615246 101.07116223 107.83154309 101.0690918 109.85693359 C101.09622768 113.02743152 101.13331789 116.19759822 101.17626953 119.36791992 C101.42769464 142.83487507 101.42769464 142.83487507 94.57104492 151.65185547 C88.60014082 157.58429847 81.69989316 160.67339683 73.32104492 161.21435547 C65.62497976 160.95781996 58.78899728 157.84738307 53.32885742 152.42529297 C47.21742099 144.84305441 46.24257572 138.80448571 46.18041992 129.33349609 C46.01955499 123.99367416 45.11594857 120.89145635 41.57104492 116.65185547 C37.76322897 114.05561732 34.25728562 113.00357933 29.60229492 113.15576172 C25.77448268 114.09063125 23.14257176 116.77472689 20.57104492 119.65185547 C18.97238825 122.84916882 19.39247501 126.329369 19.36010742 129.84326172 C19.33201288 131.5275158 19.30334829 133.21176044 19.27416992 134.89599609 C19.23311152 137.54646274 19.19622114 140.19675827 19.16967773 142.84741211 C19.14181199 145.40889897 19.09591641 147.96958911 19.04760742 150.53076172 C19.04435455 151.30923965 19.04110168 152.08771759 19.03775024 152.88978577 C18.87746808 160.18145479 17.34481156 167.80220336 12.19995117 173.30029297 C6.2057716 178.27388081 -0.05627335 180.48887601 -7.82739258 180.06201172 C-15.09634845 178.91600516 -19.2986239 175.22989404 -23.98364258 169.74951172 C-27.12297085 165.19324339 -27.67648812 161.31171556 -27.66845703 155.82958984 C-27.67047119 155.16389481 -27.67248535 154.49819977 -27.67456055 153.81233215 C-27.67809249 152.37406326 -27.67735575 150.93577879 -27.67278481 149.49751282 C-27.66717034 147.21882325 -27.67638382 144.94063864 -27.68998718 142.6619873 C-27.72703263 136.18609273 -27.7456446 129.71037269 -27.734375 123.234375 C-27.72851814 119.2666658 -27.74680725 115.29967104 -27.7802639 111.33210754 C-27.78820664 109.82349138 -27.78695607 108.31479713 -27.7762394 106.80619812 C-27.76188128 104.69471712 -27.77820802 102.58547879 -27.80126953 100.47412109 C-27.80189896 99.27452759 -27.80252838 98.07493408 -27.80317688 96.83898926 C-28.60847389 92.73755314 -30.22167068 91.24260816 -33.42895508 88.65185547 C-35.82030551 87.97668574 -35.82030551 87.97668574 -38.29223633 88.16357422 C-39.1784668 88.1796875 -40.06469727 88.19580078 -40.9777832 88.21240234 C-41.88979492 88.25429687 -42.80180664 88.29619141 -43.74145508 88.33935547 C-44.67280273 88.36191406 -45.60415039 88.38447266 -46.5637207 88.40771484 C-48.85379468 88.46643469 -51.14053383 88.54848689 -53.42895508 88.65185547 C-53.55423584 89.53446045 -53.6795166 90.41706543 -53.80859375 91.32641602 C-54.28603081 94.61867472 -54.78198882 97.90703921 -55.29052734 101.19458008 C-55.50628374 102.61437032 -55.71472862 104.03529261 -55.91552734 105.45727539 C-56.20653075 107.50866979 -56.52413802 109.55446983 -56.84692383 111.60107422 C-57.0302124 112.83172607 -57.21350098 114.06237793 -57.40234375 115.33032227 C-58.63264458 119.31087942 -60.21204457 121.05294076 -63.42895508 123.65185547 C-67.01534405 124.31057997 -68.65464156 124.10014224 -71.80395508 122.27685547 C-76.49587812 114.69759517 -72.54771355 102.76139728 -71.16333008 94.40576172 C-70.92590593 92.94431179 -70.68887322 91.48279823 -70.45220947 90.02122498 C-69.9564736 86.97198706 -69.45477277 83.92380503 -68.94897461 80.8762207 C-68.30647996 77.00093679 -67.68093688 73.12313676 -67.06014633 69.24432468 C-66.57525417 66.22904567 -66.08026576 63.21548678 -65.58246613 60.20231438 C-65.34798158 58.77454076 -65.11674052 57.34623 -64.88903046 55.91736031 C-62.86605487 43.27682853 -59.67551882 32.31072517 -52.42895508 21.65185547 C-51.8044043 20.72953125 -51.8044043 20.72953125 -51.16723633 19.78857422 C-38.57811182 3.34332149 -19.35145582 -0.22483593 0 0 Z " fill="#030101" transform="translate(156.428955078125,124.34814453125)"/>
<path d="M0 0 C3.31179041 2.05040315 6.16204768 4.3373652 9 7 C9.62648438 7.58523437 10.25296875 8.17046875 10.8984375 8.7734375 C20.30186671 18.50537079 24.06859994 33.17165317 28.43408203 45.68603516 C29.38220804 48.39559922 30.34883146 51.09811015 31.31640625 53.80078125 C31.9282107 55.54127079 32.53892754 57.28214311 33.1484375 59.0234375 C33.43584808 59.82147797 33.72325867 60.61951843 34.01937866 61.44174194 C36.00675082 67.21776999 37.01181465 72.18940375 34.875 78.125 C32.07984174 82.41090933 28.95224283 85.34925239 24 87 C21.64688787 87.22148008 19.28883994 87.39166445 16.9296875 87.53515625 C15.87173225 87.60009781 15.87173225 87.60009781 14.79240417 87.66635132 C-40.75818271 91.00365968 -40.75818271 91.00365968 -55.80859375 78.17578125 C-59.20901535 74.79960508 -61.68263182 71.17585157 -64 67 C-64.61875 65.948125 -65.2375 64.89625 -65.875 63.8125 C-68.3959664 55.26922498 -67.97679225 46.9529628 -64 39 C-62.35549282 36.15175544 -60.57906965 33.40065516 -58.7734375 30.65234375 C-58.01276474 29.48995934 -58.01276474 29.48995934 -57.23672485 28.30409241 C-56.1657672 26.67415245 -55.09151806 25.04637091 -54.01416016 23.4206543 C-52.38447083 20.95184731 -50.78016842 18.4677214 -49.17578125 15.98242188 C-48.12653096 14.39221795 -47.07579682 12.8029919 -46.0234375 11.21484375 C-45.31977554 10.11305031 -45.31977554 10.11305031 -44.60189819 8.98899841 C-34.40436287 -6.14456516 -15.66088006 -7.73912295 0 0 Z " fill="#FD6868" transform="translate(269,48)"/>
<path d="M0 0 C0.33 0.99 0.66 1.98 1 3 C7.6 3 14.2 3 21 3 C21.33 2.34 21.66 1.68 22 1 C22.433125 2.423125 22.433125 2.423125 22.875 3.875 C23.76825109 7.05211578 23.76825109 7.05211578 26 9 C28.18124591 9.33052455 28.18124591 9.33052455 30.72509766 9.31884766 C31.70596344 9.33871735 32.68682922 9.35858704 33.69741821 9.37905884 C34.75891083 9.39061005 35.82040344 9.40216125 36.9140625 9.4140625 C37.99883881 9.43342865 39.08361511 9.4527948 40.20126343 9.4727478 C43.67576159 9.53266426 47.15029267 9.57897739 50.625 9.625 C52.97657718 9.66316865 55.32814021 9.70221971 57.6796875 9.7421875 C63.4529997 9.83837559 69.22639666 9.92338753 75 10 C75.05789006 13.45826342 75.09355821 16.91640293 75.125 20.375 C75.14175781 21.35984375 75.15851563 22.3446875 75.17578125 23.359375 C75.18222656 24.30039062 75.18867188 25.24140625 75.1953125 26.2109375 C75.20578613 27.08024902 75.21625977 27.94956055 75.22705078 28.84521484 C75 31 75 31 73 33 C70.83029556 33.25069833 70.83029556 33.25069833 68.07427979 33.25168228 C66.50262873 33.25950552 66.50262873 33.25950552 64.89922714 33.26748681 C63.15908529 33.26079465 63.15908529 33.26079465 61.38378906 33.25396729 C60.15842564 33.25708727 58.93306221 33.26020725 57.67056656 33.26342177 C54.25839711 33.27004167 50.84644632 33.26762826 47.43428993 33.26144934 C43.75871637 33.25694056 40.08316248 33.26390075 36.40759277 33.26940918 C29.20284753 33.27832173 21.99814385 33.27637291 14.79339695 33.2705839 C8.94010132 33.26607471 3.08681737 33.26545127 -2.76647949 33.26763153 C-3.59823944 33.267938 -4.42999938 33.26824446 -5.28696418 33.26856022 C-6.97644965 33.26919964 -8.66593512 33.26984807 -10.35542059 33.2705054 C-26.21314515 33.27621414 -42.07084663 33.26964228 -57.92856741 33.25890467 C-71.54744192 33.24996866 -85.16628235 33.25152055 -98.78515625 33.26074219 C-114.58453559 33.27143522 -130.38389468 33.27566477 -146.18327713 33.26951766 C-147.86669159 33.26888053 -149.55010605 33.26825179 -151.23352051 33.26763153 C-152.47606303 33.2671687 -152.47606303 33.2671687 -153.74370742 33.26669653 C-159.59277439 33.26496668 -165.44182856 33.26789091 -171.29089355 33.27259064 C-178.41493243 33.27818875 -185.53892721 33.27670565 -192.66296101 33.26602915 C-196.30062603 33.26075795 -199.93821742 33.25874016 -203.57588196 33.26532745 C-207.51189301 33.27234743 -211.4477824 33.26398902 -215.38378906 33.25396729 C-216.54388363 33.25842873 -217.7039782 33.26289017 -218.89922714 33.26748681 C-219.94699451 33.26227132 -220.99476189 33.25705582 -222.07427979 33.25168228 C-222.98376499 33.25135758 -223.8932502 33.25103287 -224.83029556 33.25069833 C-227 33 -227 33 -229 31 C-229.22705078 28.84521484 -229.22705078 28.84521484 -229.1953125 26.2109375 C-229.18886719 25.26992188 -229.18242187 24.32890625 -229.17578125 23.359375 C-229.15902344 22.37453125 -229.14226562 21.3896875 -229.125 20.375 C-229.11597656 19.38242187 -229.10695313 18.38984375 -229.09765625 17.3671875 C-229.07404116 14.91121866 -229.04110799 12.45572832 -229 10 C-227.84317561 9.99668985 -226.68635122 9.99337971 -225.49447155 9.98996925 C-198.05033474 9.91099733 -170.60624707 9.82179488 -143.16218517 9.71994839 C-139.786265 9.70742912 -136.41034452 9.6949964 -133.03442383 9.68261719 C-132.36232244 9.68015119 -131.69022104 9.6776852 -130.99775294 9.67514448 C-120.1069294 9.63539173 -109.21609545 9.60265555 -98.32524159 9.57250018 C-87.1550247 9.54141558 -75.98484899 9.50267031 -64.8146804 9.45720994 C-58.53854652 9.43191151 -52.26244412 9.41014015 -45.98627281 9.39665604 C-40.08400881 9.38386599 -34.18185262 9.36184481 -28.27964783 9.33261681 C-26.10880508 9.32351705 -23.93794496 9.31784525 -21.76708412 9.31578636 C-18.81214354 9.31248073 -15.8575118 9.29704956 -12.90263367 9.2784729 C-12.03590882 9.28040763 -11.16918398 9.28234237 -10.27619475 9.28433573 C-5.34467085 9.23877793 -5.34467085 9.23877793 -1 7 C-0.26393501 3.43230448 -0.26393501 3.43230448 0 0 Z " fill="#D3D3E7" transform="translate(333,464)"/>
<path d="M0 0 C0.83265381 0.00523682 1.66530762 0.01047363 2.52319336 0.01586914 C3.42231445 0.0190918 4.32143555 0.02231445 5.24780273 0.02563477 C6.66609375 0.03820312 6.66609375 0.03820312 8.11303711 0.05102539 C9.06243164 0.05553711 10.01182617 0.06004883 10.98999023 0.06469727 C13.34356776 0.07652429 15.69702188 0.09300514 18.05053711 0.11352539 C17.39053711 0.44352539 16.73053711 0.77352539 16.05053711 1.11352539 C15.54419401 3.42331427 15.17118519 5.6538031 14.85913086 7.99243164 C14.70079521 9.0909697 14.70079521 9.0909697 14.53926086 10.21170044 C14.30627866 11.83187865 14.07721372 13.45262353 13.85144043 15.07382202 C13.21381744 19.63961601 12.54251955 24.20049647 11.87475586 28.76196289 C11.65887314 30.24314857 11.65887314 30.24314857 11.43862915 31.7542572 C9.67541484 43.78831167 7.73978663 55.79430561 5.80053711 67.80102539 C5.61383453 68.9597113 5.42713196 70.11839722 5.23477173 71.31219482 C3.07794808 84.6938734 0.89730791 98.07158147 -1.30354309 111.44608116 C-1.64395601 113.51479595 -1.98416432 115.5835443 -2.32434082 117.65229797 C-3.40837721 124.24307915 -4.49522797 130.83337225 -5.5871582 137.42285156 C-5.98662863 139.84447312 -6.38604526 142.26610356 -6.78540039 144.68774414 C-7.04741745 146.25987671 -7.04741745 146.25987671 -7.31472778 147.86376953 C-9.0255304 158.26277767 -10.45773809 168.67145176 -11.94946289 179.11352539 C101.57053711 179.11352539 215.09053711 179.11352539 332.05053711 179.11352539 C332.38053711 177.79352539 332.71053711 176.47352539 333.05053711 175.11352539 C333.05053711 176.76352539 333.05053711 178.41352539 333.05053711 180.11352539 C212.93053711 180.11352539 92.81053711 180.11352539 -30.94946289 180.11352539 C-30.3715519 174.33441544 -29.80441782 168.73576268 -28.90551758 163.02856445 C-28.7015033 161.72469788 -28.49748901 160.4208313 -28.28729248 159.07745361 C-28.0654034 157.67800402 -27.84341573 156.27857005 -27.62133789 154.87915039 C-27.38791765 153.3959266 -27.15470702 151.91266981 -26.92169189 150.42938232 C-26.43251378 147.31926404 -25.94147915 144.20944674 -25.44897461 141.09985352 C-24.83334497 137.21256069 -24.22122534 133.32472667 -23.61045074 129.4366684 C-23.01147926 125.62558184 -22.41018276 121.81486303 -21.80883789 118.00415039 C-21.69049088 117.25276291 -21.57214386 116.50137543 -21.45021057 115.72721863 C-20.17761114 107.65704549 -18.87369588 99.59449645 -17.47485352 91.54516602 C-17.23932646 90.17877767 -17.00383183 88.81238374 -16.76837158 87.44598389 C-16.33199759 84.93010897 -15.88806699 82.41552689 -15.43475342 79.90264893 C-12.99735802 68.34608131 -12.99735802 68.34608131 -14.94946289 57.11352539 C-16.96616116 55.98002005 -16.96616116 55.98002005 -18.94946289 55.11352539 C-18.64153899 52.32128345 -18.32833852 49.52981112 -18.01196289 46.73852539 C-17.92495117 45.94446289 -17.83793945 45.15040039 -17.74829102 44.33227539 C-17.06274414 38.34008789 -17.06274414 38.34008789 -15.94946289 36.11352539 C-14.83571289 35.84540039 -13.72196289 35.57727539 -12.57446289 35.30102539 C-9.83413172 34.15456031 -9.10022008 33.46970363 -7.92602539 30.69555664 C-7.09890096 27.18694819 -6.48519599 23.67524941 -5.94946289 20.11352539 C-5.68201896 18.43110871 -5.41374591 16.74882369 -5.14477539 15.06665039 C-4.73290347 12.47912561 -4.32858021 9.89175539 -3.95043945 7.29907227 C-2.89809284 0.16876809 -2.89809284 0.16876809 0 0 Z " fill="#F0D4A6" transform="translate(104.949462890625,211.886474609375)"/>
<path d="M0 0 C0.33 0.99 0.66 1.98 1 3 C7.6 3 14.2 3 21 3 C21.33 2.34 21.66 1.68 22 1 C22.433125 2.423125 22.433125 2.423125 22.875 3.875 C23.76825109 7.05211578 23.76825109 7.05211578 26 9 C28.18124591 9.33052455 28.18124591 9.33052455 30.72509766 9.31884766 C31.70596344 9.33871735 32.68682922 9.35858704 33.69741821 9.37905884 C34.75891083 9.39061005 35.82040344 9.40216125 36.9140625 9.4140625 C37.99883881 9.43342865 39.08361511 9.4527948 40.20126343 9.4727478 C43.67576159 9.53266426 47.15029267 9.57897739 50.625 9.625 C52.97657718 9.66316865 55.32814021 9.70221971 57.6796875 9.7421875 C63.4530105 9.83837577 69.22639894 9.9223622 75 10 C75 13.3 75 16.6 75 20 C-18.06 20 -111.12 20 -207 20 C-207 24.29 -207 28.58 -207 33 C-210.29188269 33.05376941 -213.58289426 33.09356106 -216.875 33.125 C-217.81214844 33.14175781 -218.74929687 33.15851563 -219.71484375 33.17578125 C-220.61074219 33.18222656 -221.50664062 33.18867188 -222.4296875 33.1953125 C-223.25710449 33.20578613 -224.08452148 33.21625977 -224.93701172 33.22705078 C-227 33 -227 33 -229 31 C-229.22705078 28.84521484 -229.22705078 28.84521484 -229.1953125 26.2109375 C-229.18886719 25.26992188 -229.18242187 24.32890625 -229.17578125 23.359375 C-229.15902344 22.37453125 -229.14226562 21.3896875 -229.125 20.375 C-229.11597656 19.38242187 -229.10695313 18.38984375 -229.09765625 17.3671875 C-229.07404116 14.91121866 -229.04110799 12.45572832 -229 10 C-227.84317561 9.99668985 -226.68635122 9.99337971 -225.49447155 9.98996925 C-198.05033474 9.91099733 -170.60624707 9.82179488 -143.16218517 9.71994839 C-139.786265 9.70742912 -136.41034452 9.6949964 -133.03442383 9.68261719 C-132.36232244 9.68015119 -131.69022104 9.6776852 -130.99775294 9.67514448 C-120.1069294 9.63539173 -109.21609545 9.60265555 -98.32524159 9.57250018 C-87.1550247 9.54141558 -75.98484899 9.50267031 -64.8146804 9.45720994 C-58.53854652 9.43191151 -52.26244412 9.41014015 -45.98627281 9.39665604 C-40.08400881 9.38386599 -34.18185262 9.36184481 -28.27964783 9.33261681 C-26.10880508 9.32351705 -23.93794496 9.31784525 -21.76708412 9.31578636 C-18.81214354 9.31248073 -15.8575118 9.29704956 -12.90263367 9.2784729 C-12.03590882 9.28040763 -11.16918398 9.28234237 -10.27619475 9.28433573 C-5.34467085 9.23877793 -5.34467085 9.23877793 -1 7 C-0.26393501 3.43230448 -0.26393501 3.43230448 0 0 Z " fill="#C5C5DF" transform="translate(333,464)"/>
<path d="M0 0 C14.6876953 -1.38016626 14.6876953 -1.38016626 20.00390625 1.79296875 C21.63063617 3.35180946 23.21240623 4.95890925 24.74609375 6.609375 C30.77711887 13.00623353 38.62796586 15.95839869 47 18 C47.92244507 18.25910156 47.92244507 18.25910156 48.86352539 18.5234375 C52.87316152 19.41782782 56.97080042 19.19088241 61.0625 19.1875 C62.08802979 19.18669434 63.11355957 19.18588867 64.17016602 19.18505859 C73.94083799 19.11215913 83.68327096 18.6581639 93.4375 18.125 C94.19402863 18.08579437 94.95055725 18.04658875 95.73001099 18.00619507 C113.76111585 17.3371244 113.76111585 17.3371244 128.76171875 8.22265625 C131.06313412 5.58689482 133.05703758 2.91444363 135 0 C138.0390625 -0.29296875 138.0390625 -0.29296875 141.625 -0.1875 C142.81351563 -0.16042969 144.00203125 -0.13335937 145.2265625 -0.10546875 C146.14179688 -0.07066406 147.05703125 -0.03585938 148 0 C148.33 1.98 148.66 3.96 149 6 C149.99 6.33 150.98 6.66 152 7 C151.34 7.33 150.68 7.66 150 8 C149.71382812 8.9075 149.42765625 9.815 149.1328125 10.75 C145.88660193 20.06326619 136.07164262 27.50866678 127.4375 31.75 C119.9867865 34.45935036 113.44462962 35.44589987 105.5390625 35.88671875 C103.88310562 35.98591362 103.88310562 35.98591362 102.19369507 36.08711243 C99.85901588 36.22457054 97.52409418 36.35796251 95.18896484 36.48754883 C91.67063652 36.68493963 88.15382281 36.90114239 84.63671875 37.11914062 C58.80503839 38.64435834 33.95122175 38.37385858 13.09375 20.92578125 C8.92146839 17.08821626 4.85659273 13.15593115 1 9 C0.36835938 8.34386719 -0.26328125 7.68773437 -0.9140625 7.01171875 C-2 5 -2 5 -1.1875 2.25 C-0.795625 1.5075 -0.40375 0.765 0 0 Z " fill="#ED2B54" transform="translate(182,132)"/>
<path d="M0 0 C0.66 0.33 1.32 0.66 2 1 C1.41508789 1.86165771 0.83017578 2.72331543 0.22753906 3.61108398 C-1.96393762 6.84353772 -4.14589485 10.08232548 -6.32519531 13.32299805 C-7.26536327 14.71826787 -8.20802186 16.11186309 -9.15332031 17.50366211 C-17.72468569 30.12966386 -24.20540438 40.06854092 -22 56 C-18.72493741 68.54957614 -10.61644273 77.88620845 0 85 C6.59235678 88.7471365 12.43508591 90.62795504 20 91 C20 91.33 20 91.66 20 92 C-10.74880772 93.1593228 -10.74880772 93.1593228 -24.80859375 81.17578125 C-28.20901535 77.79960508 -30.68263182 74.17585157 -33 70 C-33.61875 68.948125 -34.2375 67.89625 -34.875 66.8125 C-37.3959664 58.26922498 -36.97679225 49.9529628 -33 42 C-31.35549282 39.15175544 -29.57906965 36.40065516 -27.7734375 33.65234375 C-27.01276474 32.48995934 -27.01276474 32.48995934 -26.23672485 31.30409241 C-25.1657672 29.67415245 -24.09151806 28.04637091 -23.01416016 26.4206543 C-21.38447083 23.95184731 -19.78016842 21.4677214 -18.17578125 18.98242188 C-17.12653096 17.39221795 -16.07579682 15.8029919 -15.0234375 14.21484375 C-14.31977554 13.11305031 -14.31977554 13.11305031 -13.60189819 11.98899841 C-9.92222472 6.52821101 -5.66648579 3.30153774 0 0 Z " fill="#FB4059" transform="translate(238,45)"/>
<path d="M0 0 C0.89267578 0.00966797 1.78535156 0.01933594 2.70507812 0.02929688 C4.09823242 0.06700195 4.09823242 0.06700195 5.51953125 0.10546875 C6.45990234 0.11900391 7.40027344 0.13253906 8.36914062 0.14648438 C10.69068163 0.18183779 13.01106778 0.23118201 15.33203125 0.29296875 C15.18785767 1.15112183 15.18785767 1.15112183 15.04077148 2.02661133 C14.28225725 7.30220668 14.39962107 10.9230359 16.39453125 15.98046875 C16.86246094 17.17414063 17.33039062 18.3678125 17.8125 19.59765625 C18.31394531 20.81710937 18.81539062 22.0365625 19.33203125 23.29296875 C19.80253906 24.51242187 20.27304687 25.731875 20.7578125 26.98828125 C24.82220315 37.13282504 29.72390582 44.57443183 38.33203125 51.29296875 C38.33203125 51.62296875 38.33203125 51.95296875 38.33203125 52.29296875 C27.56131134 52.91171223 19.75431441 50.69460049 10.8515625 44.59765625 C3.55331261 37.92173774 -0.48749768 30.17760551 -4.16796875 21.10546875 C-4.62171875 20.05166016 -5.07546875 18.99785156 -5.54296875 17.91210938 C-5.96578125 16.88923828 -6.38859375 15.86636719 -6.82421875 14.8125 C-7.20384766 13.89573486 -7.58347656 12.97896973 -7.97460938 12.03442383 C-8.81531819 8.71036775 -8.59688861 6.58232821 -7.66796875 3.29296875 C-5.50706784 0.13568702 -3.71216541 -0.0709331 0 0 Z " fill="#D1D1E5" transform="translate(30.66796875,406.70703125)"/>
<path d="M0 0 C-0.66 0.639375 -1.32 1.27875 -2 1.9375 C-3.00191959 2.95644938 -4.00162979 3.97757268 -5 5 C-5.62777344 5.62003906 -6.25554687 6.24007812 -6.90234375 6.87890625 C-14.71568432 15.02217675 -19.28035125 24.87716553 -21 36 C-21.18304688 37.03125 -21.36609375 38.0625 -21.5546875 39.125 C-22.65721276 45.64953303 -23 51.25404667 -23 58 C-29.27 57.67 -35.54 57.34 -42 57 C-42.38873443 40.23956562 -39.45989271 23.88269888 -27.875 11.1875 C-19.95106616 3.6940685 -10.80185086 -0.2077279 0 0 Z " fill="#EB2A53" transform="translate(148,140)"/>
<path d="M0 0 C6.56771437 0.07706745 13.10646101 0.34425398 18.01757812 5.25537109 C17.65169857 8.56791111 16.13959765 10.86502653 14.29492188 13.58349609 C13.75673828 14.38271484 13.21855469 15.18193359 12.6640625 16.00537109 C11.81811523 17.24287109 11.81811523 17.24287109 10.95507812 18.50537109 C10.38724609 19.34583984 9.81941406 20.18630859 9.234375 21.05224609 C7.83391294 23.12351772 6.42818753 25.19100276 5.01757812 27.25537109 C-3.3615062 23.26028025 -6.37437255 16.51791304 -9.98242188 8.25537109 C-10.80846364 5.91426694 -11.43162786 3.67886475 -11.98242188 1.25537109 C-9.64672386 -1.08032692 -3.28216288 0.00710145 0 0 Z " fill="#3FBE79" transform="translate(191.982421875,45.74462890625)"/>
<path d="M0 0 C3.54712346 1.51096147 5.85663515 3.58832135 8.5625 6.3125 C9.32691406 7.07175781 10.09132812 7.83101562 10.87890625 8.61328125 C16 14.37569061 16 14.37569061 16 18 C13.953125 19.54296875 13.953125 19.54296875 11.25 21.1875 C10.36828125 21.73792969 9.4865625 22.28835937 8.578125 22.85546875 C6 24 6 24 3.96875 23.8046875 C1.71062435 22.88172344 -0.52992521 21.94959292 -2.75 20.9375 C-3.54921875 20.57527344 -4.3484375 20.21304688 -5.171875 19.83984375 C-5.77515625 19.56269531 -6.3784375 19.28554688 -7 19 C-6.41249992 14.5470164 -5.26681981 10.81179158 -3.5 6.6875 C-3.0565625 5.63949219 -2.613125 4.59148438 -2.15625 3.51171875 C-1 1 -1 1 0 0 Z " fill="#39AC6E" transform="translate(215,15)"/>
<path d="M0 0 C4.4833365 2.08010658 8.0874171 5.00035311 12 8 C11.01 12.29 10.02 16.58 9 21 C1.19673706 20.60983685 -4.92923365 18.24226342 -12 15 C-11.58685438 10.55073948 -8.49538473 8.15899896 -5.4375 5.25 C-4.91736328 4.74339844 -4.39722656 4.23679687 -3.86132812 3.71484375 C-2.58089916 2.46965595 -1.29132446 1.23388498 0 0 Z " fill="#3AAE6F" transform="translate(177,78)"/>
<path d="M0 0 C3.80470451 0.7133821 5.41196019 1.67868421 8 4.5625 C9.0625 8 9.0625 8 9 11.5625 C7.23358828 14.36439446 5.96950178 16.07774911 3 17.5625 C-1.0130324 18.09757099 -2.53928033 17.89301628 -5.875 15.5 C-8 12.5625 -8 12.5625 -8.625 9.0625 C-7.67703424 3.75389177 -5.38444917 1.00958422 0 0 Z " fill="#0B0404" transform="translate(233,94.4375)"/>
<path d="M0 0 C4.14182881 0.862881 5.56226471 2.18349135 8 5.625 C8.75517074 8.70049372 8.51878636 10.35664594 8 13.625 C5.45767292 16.61597304 3.8425303 17.46702557 0 18.1875 C-4.13607554 17.41198584 -5.54999553 16.01177089 -8 12.625 C-8.625 9.125 -8.625 9.125 -8 5.625 C-5.55401113 2.24378009 -4.10703441 0.85563217 0 0 Z " fill="#090303" transform="translate(268,95.375)"/>
<path d="M0 0 C2.5 1.5625 2.5 1.5625 4 4 C4.72125695 8.40768137 4.52001338 10.25937488 1.9375 13.9375 C-1 16 -1 16 -4.5 16.6875 C-8 16 -8 16 -10.9375 13.3125 C-13 10 -13 10 -13.625 7.4375 C-11.74110132 0.09029514 -6.58679495 -0.94097071 0 0 Z " fill="#070303" transform="translate(258,65)"/>
</svg>
